# xmcd
#
# Track frame offsets:
#	150
#	15488
#	30991
#	49404
#	65266
#	79218
#	97709
#	113300
#	131497
#	146469
#
# Disc length: 2162 seconds
#
# Revision: 0
# Processed by: cddbd v1.5.1PL2 Copyright (c) Steve Scherf et al.
# Submitted via: audiograbber 1.83.01
#
DISCID=6e08700a
DTITLE=Paul Bailey - By Request Volume 4
DYEAR=1900
DGENRE=
TTITLE0=The Words I Love You
TTITLE1=You Need A Man Around Here
TTITLE2=Radio Dancing
TTITLE3=What You Mean To Me
TTITLE4=Blame It On The Bossanova
TTITLE5=The World
TTITLE6=End Of The Line
TTITLE7=Where You Gonna Go
TTITLE8=Lemon Tree
TTITLE9=Irish Mix
EXTD=
EXTT0=
EXTT1=
EXTT2=
EXTT3=
EXTT4=
EXTT5=
EXTT6=
EXTT7=
EXTT8=
EXTT9=
PLAYORDER=
